<svg width="32" height="32" xmlns="http://www.w3.org/2000/svg">

 <g>
  <title>background</title>
  <rect fill="none" id="canvas_background" height="402" width="582" y="-1" x="-1"/>
 </g>
 <g>
  <title>Layer 1</title>
  <rect id="svg_1" width="32" height="32" fill="none"/>
  <path fill="#e8e8e8" id="svg_2" d="m29.998,17.348l0,-12.349c0.027,-0.272 -0.205,-1.715 -2.102,-2.851c-1.884,-1.151 -5.298,-2.144 -11.894,-2.148c-6.599,0.004 -10.013,0.997 -11.899,2.148c-1.895,1.135 -2.128,2.578 -2.101,2.851l0,22.74c-0.035,0.353 0.305,1.628 2.176,2.525c1.867,0.926 5.239,1.73 11.822,1.736c1.978,-0.002 3.66,-0.076 5.104,-0.204c0.612,0.131 1.245,0.204 1.895,0.204c4.971,-0.002 8.999,-4.03 9.001,-9.001c-0.001,-2.143 -0.752,-4.106 -2.002,-5.651zm-13.998,12.652c-6.414,0.007 -9.541,-0.821 -10.924,-1.524c-0.694,-0.35 -0.987,-0.648 -1.075,-0.78c-0.018,-0.027 0.009,-0.047 0.002,-0.062l-0.003,-19.851c0.037,0.023 0.065,0.047 0.103,0.069c1.886,1.149 5.3,2.141 11.899,2.148c6.596,-0.006 10.01,-0.999 11.895,-2.147c0.037,-0.023 0.066,-0.048 0.103,-0.07l0,7.735c-1.431,-0.957 -3.15,-1.518 -5.001,-1.518c-4.972,0.002 -8.998,4.027 -9,8.999c0.001,2.822 1.301,5.338 3.333,6.988c-0.43,0.008 -0.867,0.014 -1.332,0.013zm6.999,-0.002c-3.865,-0.006 -6.992,-3.133 -7,-6.999c0.008,-3.865 3.135,-6.991 7,-7c3.866,0.009 6.993,3.135 6.999,7c-0.006,3.866 -3.133,6.993 -6.999,6.999z"/>
  <polygon fill="#e8e8e8" id="svg_4" points="28,22 24.002,22 24.002,18 22,18 22,22 18,22 18,24 22,24 22,28 24.002,28 24.002,24 28,24   "/>
 </g>
</svg>