<svg width="32" height="32" xmlns="http://www.w3.org/2000/svg">
 <title/>
 <desc/>

 <g>
  <title>background</title>
  <rect fill="none" id="canvas_background" height="34" width="34" y="-1" x="-1"/>
 </g>
 <g>
  <title>Layer 1</title>
  <path stroke="null" fill="#e8e8e8" id="Shape" d="m27.178239,5.293012c-2.794568,-2.959296 -6.786808,-4.734874 -11.178272,-4.734874c-8.782928,0 -15.96896,7.102311 -15.96896,15.782914c0,8.680603 7.186032,15.782914 15.96896,15.782914c7.385644,0 13.573616,-5.129447 15.370124,-11.837186l-4.191852,0c-1.596896,4.537588 -5.98836,7.891457 -11.178272,7.891457c-6.587196,0 -11.97672,-5.326733 -11.97672,-11.837186c0,-6.510452 5.389524,-11.837186 11.97672,-11.837186c3.393404,0 6.187972,1.381005 8.383704,3.551156l-6.387584,6.313166l13.97284,0l0,-13.81005l-4.790688,4.734874l0,0z"/>
 </g>
</svg>